<?xml version="1.0" encoding="UTF-8" standalone="no"?>

<svg
   width="110.72054mm"
   height="32.071167mm"
   viewBox="0 0 110.72054 32.071167"
   version="1.1"
   id="svg1"
   xmlns="http://www.w3.org/2000/svg"
   xmlns:svg="http://www.w3.org/2000/svg">
  <defs
     id="defs1">
    <rect
       x="125.64488"
       y="218.15266"
       width="672.40723"
       height="233.3405"
       id="rect4" />
  </defs>
  <g
     id="layer1"
     transform="translate(-36.114938,-62.405756)">
    <path
       id="text4"
       style="font-style:normal;font-variant:normal;font-weight:normal;font-stretch:normal;font-size:157.333px;font-family:Mukta;-inkscape-font-specification:Mukta;letter-spacing:-8px;white-space:pre;shape-inside:url(#rect4);fill:#ffffff;stroke-width:0;stroke-linecap:round;stroke-linejoin:round;stroke-miterlimit:1.5"
       transform="scale(0.26458333)"
       d="m 260.21289,239.39258 v 116.42578 h 11.01368 V 308.9336 c 0,-10.17418 2.46477,-17.88448 7.39453,-23.12891 4.92975,-5.24442 11.53608,-7.86523 19.82226,-7.86523 8.07642,0 14.42397,2.46477 19.03907,7.39453 4.71997,4.92975 7.07812,12.06141 7.07812,21.39648 v 49.08789 h 10.85742 v -50.3457 c 0,-8.07641 -1.52073,-14.89403 -4.5625,-20.45313 -2.93687,-5.66397 -7.02902,-9.86078 -12.27343,-12.58789 -5.13954,-2.72709 -10.95981,-4.08984 -17.4629,-4.08984 -6.60796,0 -12.58624,1.41606 -17.93554,4.24805 -5.24443,2.83198 -9.22994,6.81749 -11.95703,11.95703 v -45.1543 z m 259.98634,8.9668 v 21.55469 h -11.95899 v 9.2832 h 11.95899 v 53.33594 c 0,8.28618 1.88807,14.26445 5.66406,17.93554 3.77598,3.56622 9.5449,5.34961 17.30664,5.34961 h 11.79883 v -9.43945 H 544.9004 c -5.03465,0 -8.55009,-0.99736 -10.54297,-2.99023 -1.99288,-1.99289 -2.98828,-5.61105 -2.98828,-10.85547 v -53.33594 h 23.59961 v -9.2832 H 531.36915 V 248.35938 Z M 136.5,268.65625 v 87.16211 h 22.02735 v -87.16211 z m 26.45703,0 32.09571,87.16211 h 26.74609 l 32.25391,-87.16211 h -23.44336 l -22.02735,66.86719 -22.02539,-66.86719 z m 226.76368,0 c -8.07641,0 -15.36606,1.83477 -21.86914,5.50586 -6.50309,3.56621 -11.64199,8.70707 -15.41797,15.41992 -3.77599,6.60798 -5.66406,14.36964 -5.66406,23.28516 0,8.91552 1.83476,16.72854 5.50586,23.44141 3.77597,6.60797 8.86352,11.74882 15.26171,15.41992 6.50309,3.56621 13.79274,5.34961 21.86914,5.34961 8.07642,0 15.41938,-1.7834 22.02735,-5.34961 6.60797,-3.6711 11.80018,-8.86331 15.57617,-15.57617 3.77599,-6.71287 5.66406,-14.47453 5.66406,-23.28516 0,-8.91552 -1.88807,-16.67718 -5.66406,-23.28516 -3.6711,-6.71285 -8.81195,-11.85371 -15.41992,-15.41992 -6.50308,-3.67109 -13.79273,-5.50586 -21.86914,-5.50586 z m 82.31055,0 c -5.87376,0 -11.11928,1.04872 -15.73438,3.14649 -4.61509,2.09777 -8.18189,4.92989 -10.69922,8.49609 -2.51732,3.56621 -3.77539,7.44704 -3.77539,11.64258 0,5.55908 1.3647,10.01661 4.0918,13.37305 2.83199,3.25153 6.2408,5.71631 10.22656,7.39453 3.98577,1.67822 9.17603,3.35695 15.57422,5.03515 4.92975,1.25867 8.81254,2.46537 11.64453,3.61915 2.93688,1.04887 5.34834,2.5163 7.23633,4.40429 1.88799,1.888 2.83203,4.30141 2.83203,7.23828 0,4.19555 -1.73008,7.70903 -5.19141,10.54102 -3.35642,2.83199 -8.02526,4.24805 -14.0039,4.24805 -6.81776,0 -12.27068,-1.46938 -16.36133,-4.40625 -3.98577,-3.04177 -6.24118,-6.97397 -6.76563,-11.79883 h -11.32812 c 0.73422,7.86663 4.19634,14.10757 10.38477,18.72265 6.2933,4.51021 14.369,6.76563 24.22851,6.76563 5.87376,0 11.06598,-1.04872 15.57617,-3.14648 4.51021,-2.09778 8.02369,-4.92989 10.54102,-8.4961 2.51732,-3.6711 3.77539,-7.81459 3.77539,-12.42969 -0.10489,-5.03464 -1.46764,-9.07346 -4.08984,-12.11523 -2.62222,-3.04177 -5.76836,-5.34855 -9.43946,-6.92188 -3.67109,-1.57331 -8.6026,-3.20069 -14.79101,-4.8789 -5.13954,-1.46844 -9.22972,-2.77787 -12.27149,-3.93164 -3.04176,-1.25867 -5.61121,-2.93739 -7.70898,-5.03516 -1.99288,-2.20266 -2.99024,-4.98146 -2.99024,-8.33789 0,-3.88088 1.73205,-7.13365 5.19336,-9.75586 3.46133,-2.62221 7.97022,-3.93359 13.5293,-3.93359 6.2933,0 11.2248,1.57404 14.79102,4.7207 3.67108,3.04177 5.66385,7.08059 5.97851,12.11523 h 11.01172 c -0.41955,-8.18129 -3.46103,-14.58021 -9.125,-19.19531 -5.66397,-4.71997 -13.10966,-7.08008 -22.33984,-7.08008 z m -82.4668,9.59766 c 5.66397,0 10.90755,1.31139 15.73242,3.93359 4.82487,2.51733 8.7057,6.39816 11.64258,11.64258 2.93688,5.13954 4.40625,11.48515 4.40625,19.03711 0,7.55197 -1.52073,13.94894 -4.5625,19.19336 -2.93688,5.13954 -6.81771,9.02037 -11.64258,11.64258 -4.82487,2.51732 -10.07039,3.77734 -15.73438,3.77734 -5.66397,0 -10.90754,-1.26002 -15.73242,-3.77734 -4.71997,-2.62221 -8.54945,-6.50304 -11.48633,-11.64258 -2.83198,-5.24442 -4.24804,-11.64139 -4.24804,-19.19336 0,-7.55196 1.41606,-13.89757 4.24804,-19.03711 2.93688,-5.24442 6.81772,-9.12525 11.64258,-11.64258 4.82488,-2.6222 10.0704,-3.93359 15.73438,-3.93359 z" />
    <rect
       style="fill:#ffffff;fill-opacity:1;stroke:none;stroke-width:0;stroke-linecap:round;stroke-linejoin:round;stroke-miterlimit:1.5"
       id="rect31"
       width="13.25539"
       height="4.6302085"
       x="36.114941"
       y="62.405754"
       rx="0"
       ry="0" />
  </g>
</svg>
